<svg width="500" height="500" viewBox="0 0 500 500" fill="none" xmlns="http://www.w3.org/2000/svg">
<path d="M248.22 242.985C255.4 235.486 253.248 211.81 249.825 201.827C246.403 191.843 238.391 167.057 217.168 171.56C208.309 173.439 193.873 192.348 187.58 202.133C183.5 208.468 183.847 214.255 187.844 222.744C193.452 234.649 200.465 239.666 204.179 242.846C206.32 244.679 209.341 244.928 211.514 243.152C217.77 238.037 221.495 231.991 223.463 227.978C224.778 225.304 224.16 222.076 221.941 220.087C221.403 219.605 220.78 219.063 220.071 218.462C215.615 214.707 212.622 207.702 218.878 207.24C225.641 206.737 230.842 224.604 228.365 233.989C226.82 239.842 222.022 243.325 218.428 245.182C215.64 246.617 214.203 249.789 214.918 252.857C215.606 255.836 216.653 258.682 217.573 260.867C218.563 263.211 221.556 265.045 223.998 264.359C224.645 264.174 225.245 264.003 225.774 263.84C228.537 263.002 231.48 264.386 232.605 267.054C245.384 297.417 251.938 355.256 238.655 369.817C229.486 379.865 211.311 386.405 201.675 388.821C196.199 390.193 194.269 394.651 194.513 400.305C195.245 417.143 202.199 442.386 205.929 456.858C207.311 462.237 213.526 464.739 218.225 461.798C241.209 447.424 259.099 433.097 268.429 424.957C273.753 420.309 276.955 413.755 277.682 406.714C284.07 344.764 268.226 288.37 261.066 262.441C254.557 238.843 248.22 242.985 248.22 242.985V242.985Z" fill="#0066FF"/>
<path d="M347.739 142.881C347.548 135.855 346.351 121.19 340.293 105.286C330.024 78.3253 315.795 67.056 296.547 83.1224C279.217 97.5865 272.09 105.672 282.074 122.171C290.386 135.906 312.205 144.039 318.433 147.082C318.433 147.082 322.261 154.94 319.668 168.116C318.936 171.844 320.522 175.654 323.619 177.862C328.092 181.042 335.187 184.653 344.028 184.214C344.911 185.33 345.944 186.688 347.058 188.228C352.724 196.483 359.257 209.754 349.883 217.75C349.883 217.75 341.489 225.394 334.416 215.514C331.071 210.153 327.741 201.776 322.62 190.749C315.657 175.753 291.24 132.349 270.97 118.723C266.252 115.553 261.562 117.404 258.485 120.274C248.747 129.354 235.577 143.459 227.775 153.833C224.818 157.757 222.097 164.145 227.388 168.698C232.096 172.753 244.909 175.141 254.923 177.781C270.098 181.779 282.619 181.352 297.941 203.865C312.658 225.503 323.458 245.456 334.422 263.079C339.971 271.987 350.411 272.984 358.069 267.25C367.298 260.349 372.351 255.494 379.262 248.732C390.252 237.976 396.008 220.587 389.562 204.979C382.196 187.13 369.546 165.756 351.24 150.123C349.107 148.305 347.809 145.697 347.735 142.892L347.739 142.881ZM319.054 120.465C317.394 121.492 314.335 119.414 312.223 115.83C310.112 112.246 309.744 108.503 311.411 107.472C313.071 106.445 316.13 108.523 318.242 112.107C320.354 115.691 320.722 119.434 319.054 120.465Z" fill="#0066FF"/>
<path d="M394.201 43.2622C388.454 38.0007 381.222 36.111 373.272 38.6949C364.807 41.4532 360.47 44.2865 359.076 46.5268C357.125 49.65 358.031 53.6343 358.031 53.6343C357.979 53.5861 357.927 53.5379 357.867 53.4934C353.549 49.7716 347.293 48.8503 342.416 51.4164C338.784 53.3299 334.775 55.2469 331.315 57.3533C323.691 61.9925 322.613 72.6168 329.032 81.5251C343.892 102.154 355.363 122.894 369.643 152.04C385.332 184.072 392.788 207.085 398.231 220.931C399.43 223.969 402.617 225.138 404.985 223.05C411.388 217.398 418.11 210.147 424.316 202.811C428.292 198.115 429.124 191.412 426.312 185.709C407.936 148.505 377.923 121.537 381.576 116.251C384.646 111.815 389.987 123.669 393.735 130.221C395.389 133.115 398.876 134.366 401.824 133.101C405.689 131.433 408.384 129.701 410.195 128.273C412.272 126.637 413.017 123.785 412.078 121.21C405.108 102.104 394.66 92.7828 397.221 89.3445C399.982 85.6205 403.62 89.4608 412.848 115.327C418.891 132.27 424.888 158.373 428.953 175.341C430.553 182.023 438.902 183.52 442.681 178.004C450.126 167.14 453.802 159.113 456.105 152.666C458.113 147.054 458.517 140.9 456.06 135.316C447.978 116.925 431.655 88.0051 416.624 68.196C407.896 56.6941 399.99 48.5683 394.209 43.277L394.201 43.2622Z" fill="#0066FF"/>
<path d="M480.64 19.6121C473.62 19.8629 461.904 19.2372 445.999 22.5689C436.684 24.5183 434.502 31.518 439.457 38.3374L439.505 38.3968C439.847 38.8568 440.215 39.3132 440.616 39.7622C443.645 43.3872 455.795 53.3502 473.349 67.4469C476.272 70.1408 481.015 68.5244 481.658 64.5996C482.099 61.8991 482.58 58.7237 483.035 55.2552C483.638 50.6257 480.622 46.2884 476.065 45.2859C473.757 44.7809 468.879 42.5095 467.115 41.463C457.645 35.8669 464.161 30.9381 473.565 40.3366C474.861 41.6279 476.262 42.5222 477.505 43.3571C480.431 45.335 484.392 43.507 484.768 39.994C485.293 35.0602 485.773 29.8334 486.021 25.0665C486.181 22.0246 483.683 19.4978 480.647 19.6084L480.64 19.6121Z" fill="#0066FF"/>
<path d="M144.964 418.839C143.56 418.586 142.26 418.226 141.337 417.937C140.481 417.669 139.556 417.929 138.969 418.604C135.731 422.335 132.982 424.902 130.817 426.674C123.52 431.874 118.055 434.577 110.014 436.723C107.176 437.487 104.291 435.739 103.622 432.871C103.382 431.858 103.117 430.757 102.84 429.651C102.055 426.553 98.7007 424.883 95.7676 426.122C90.8334 428.206 82.5865 430.697 71.7117 430.438C69.4456 430.386 67.7819 428.286 68.2024 426.06C69.3214 420.207 71.1982 409.163 71.4679 399.585C71.5363 397.211 69.9873 395.081 67.7087 394.431C66.4119 394.06 64.8708 393.663 63.2594 393.329C60.3626 392.738 58.5193 389.856 59.2271 386.984C61.09 379.458 68.7008 364.788 81.493 353.973C82.2358 353.35 82.5444 352.359 82.3459 351.41C82.1849 350.645 81.9973 349.625 81.8538 348.434C81.7631 347.681 81.0732 347.154 80.3294 347.295C74.2302 348.385 46.7133 356.136 29.1725 394.179L15.5631 422.562C15.5631 422.562 25.2233 425.844 34.3135 426.087C34.3099 426.116 33.8108 449.765 21.7404 476.068C21.7404 476.068 55.371 471.798 71.6505 462.308C71.6505 462.308 73.8729 470.452 77.7663 479.085C77.7663 479.085 103.936 469.809 122.559 454.306C122.559 454.306 130.539 448.346 137.735 438.443C142.45 432.783 145.384 425.639 146.737 421.822C147.208 420.49 146.353 419.08 144.96 418.831L144.964 418.839Z" fill="#FF611D"/>
<path d="M458.536 57.0649C453.151 51.9741 444.361 53.4561 441.286 60.2813C440.921 61.0862 440.271 63.3341 439.992 64.1799C435.884 54.1035 433.584 28.8216 422.735 27.0646C415.764 25.9354 394.095 32.5564 394.039 32.5749C393.732 32.6824 393.558 32.7418 393.558 32.7418C392.201 33.2275 391.308 34.585 391.482 36.0763C391.58 36.8814 392.055 37.59 392.69 38.0984C393.217 38.5214 393.74 38.9555 394.266 39.3971C394.433 39.5826 394.612 39.7533 394.812 39.9128C395.101 40.1392 395.398 40.3804 395.695 40.6216C411.793 54.7143 426.095 75.8365 428.559 79.6988C440.507 98.4352 450.191 116.422 455.723 127.771L459.103 135.139C459.598 136.237 460.821 136.831 462.001 136.49C462.656 136.301 463.17 135.811 463.487 135.207C465.411 131.494 468.471 121.519 470.619 113.915C471.17 111.967 470.461 109.871 468.84 108.65C467.294 107.485 465.205 105.811 462.949 103.711C461.706 102.431 460.362 100.969 458.921 99.2588C451.937 90.9588 444.231 81.0895 449.7 79.7588C452.175 79.1584 451.852 81.7069 460.97 96.8665C462.494 99.408 464.225 101.734 465.848 103.697C468.113 106.443 472.628 105.423 473.545 101.955C474.8 97.2404 476.344 91.2199 477.576 85.8671C478.444 82.0797 477.58 78.1398 475.199 75.1085C471.411 70.3037 464.952 63.1056 458.536 57.0278L458.536 57.0649Z" fill="#0066FF"/>
<path d="M186.207 376.862C181.556 357.819 163.885 325.489 148.609 329.025C131.406 332.998 129.681 350.14 129.681 350.14C118.324 334.32 126.093 330.063 134.223 314.232C142.338 298.426 159.779 265.076 130.983 237.674C121.401 228.55 109.681 227.75 99.0854 225.096C93.106 223.599 87.0579 222.778 82.9034 227.322C74.3839 236.653 62.5966 251.226 54.138 262.821C48.9665 269.397 44.6116 275.313 39.61 283.281C36.0174 289 41.5604 290.697 44.6276 291.332C62.5935 295.064 77.3758 298.98 100.333 304.194C104.174 305.062 110.418 307.438 104.844 317.438C101.434 323.558 101.517 324.463 95.4175 334.523C92.1942 339.834 91.8835 346.193 94.4874 351.294C94.785 351.888 95.1455 352.441 95.5244 352.975C95.5244 352.975 95.5355 352.997 95.5727 353.034C95.7881 353.335 100.404 359.127 103.408 362.625C103.411 362.633 103.415 362.64 103.419 362.648C111.305 372.046 126.411 388.735 146.112 404.383C150.404 407.793 156.192 408.373 161.215 406.208C163.871 405.062 167.184 403.401 170.15 401.914L171.463 401.228C184.121 394.668 190.305 393.601 186.211 376.851L186.207 376.862ZM158.496 376.288C156.529 377.46 153.764 376.172 152.321 373.423C150.878 370.674 151.311 367.495 153.278 366.323C155.245 365.151 158.01 366.439 159.453 369.188C160.896 371.938 160.463 375.117 158.496 376.288Z" fill="#0066FF"/>
<path d="M157.814 310.324C160.349 315.823 165.748 326.942 171.01 336.903C171.91 338.606 183.355 360.585 190.297 383.679C191.424 387.422 193.923 389.047 198.268 388.188C198.268 388.188 204.831 387.34 220.322 378.291L220.3 378.247C228.246 373.511 222.806 367.166 216.67 358.822C207.818 346.779 193.485 329.136 189.213 323.496C184.942 317.857 180.125 313.345 181.021 310.092C181.917 306.838 185.476 308.842 187.624 312.389C189.769 315.929 192.221 323.901 200.342 313.794C208.05 304.191 200.104 299.419 194.941 292.444C189.778 285.469 184.506 277.629 187.678 275.797C190.85 273.965 195.397 276.923 204.026 298.029C212.654 319.135 211.299 334.671 213.81 345.678C216.32 356.685 222.439 353.014 236.642 343.535C252.596 332.88 236.833 305.704 223.401 279.633C214.493 262.344 203.263 246.813 196.704 238.309C192.058 232.291 185.572 227.957 178.244 226.096C170.257 224.066 159.401 223.937 152.132 223.784C140.736 223.536 137.39 231.871 139.842 240.122C144.183 254.724 155.736 269.221 155.736 269.221C143.523 274.619 148.838 290.85 157.814 310.324V310.324Z" fill="#0066FF"/>
<path d="M284.809 193.755C283.419 190.097 278.863 187.693 275.288 189.921C270.974 192.614 264.201 198.433 258.173 204.779C255.355 207.742 254.292 212.231 255.205 216.304C256.672 222.83 261.55 234.182 271.784 242.079C286.799 253.66 302.094 256.623 302.959 270.331C303.079 272.286 302.132 275.695 299.722 276.095C298.083 276.369 296.498 274.851 296.139 273.193C295.24 269.112 293.917 256.061 287.508 255.978C283.735 255.929 277.334 259.167 272.793 261.759C269.136 263.843 266.437 268.502 266.992 272.764C267.414 276.062 267.967 279.583 268.708 283.148C268.708 283.148 271.922 300.247 274.729 308.264C277.935 317.427 282.887 324.202 293.112 320.469L295.678 317.798C295.678 317.798 293.119 320.465 293.126 320.461C293.149 320.45 293.178 320.435 293.2 320.424C293.289 320.38 293.444 320.302 293.666 320.191C293.792 320.128 293.918 320.064 294.051 319.998C296.44 318.744 306.197 311.457 315.727 303.439C321.265 298.777 325.007 295.071 327.341 292.564C327.504 292.39 327.666 292.216 327.821 292.045C327.94 291.911 328.047 291.793 328.154 291.674C328.427 291.37 328.693 291.069 328.951 290.773C329.978 289.59 330.454 288.952 330.454 288.952L330.439 288.959C330.86 288.414 331.262 287.869 331.627 287.342C336.155 280.662 335.8 274.878 332.799 266.086C328.004 252.036 318.492 241.261 305.849 232.214C283.626 216.317 288.52 203.594 284.79 193.737L284.809 193.755Z" fill="#0066FF"/>
</svg>
